<svg width="31" height="25" viewBox="0 0 31 25" fill="none" xmlns="http://www.w3.org/2000/svg">
<path d="M28.9896 0.833344C29.2796 0.833344 29.5578 0.948577 29.763 1.1537C29.9681 1.35881 30.0833 1.63701 30.0833 1.92709V11.4063C30.0833 12.8567 29.5071 14.2477 28.4816 15.2733C27.456 16.2988 26.065 16.875 24.6146 16.875H4.68789L10.1129 22.3C10.2979 22.4854 10.4103 22.731 10.4295 22.9922C10.4488 23.2534 10.3737 23.5128 10.2179 23.7233L10.1114 23.8458C9.92625 24.0311 9.68073 24.1437 9.41953 24.1632C9.15833 24.1828 8.89879 24.1079 8.6881 23.9523L8.5656 23.8458L1.27393 16.5542C1.0887 16.369 0.976076 16.1235 0.956539 15.8623C0.937003 15.6011 1.01185 15.3415 1.16748 15.1308L1.27393 15.0083L8.5656 7.71668C8.76102 7.52278 9.02237 7.40971 9.29748 7.40002C9.5726 7.39033 9.84125 7.48474 10.0498 7.66441C10.2584 7.84408 10.3915 8.09579 10.4227 8.36931C10.4539 8.64283 10.3807 8.91804 10.2179 9.14001L10.1114 9.26251L4.68643 14.6875H24.6146C25.446 14.6876 26.2465 14.3721 26.8542 13.8047C27.4619 13.2373 27.8316 12.4603 27.8885 11.6308L27.8958 11.4063V1.92709C27.8958 1.63701 28.011 1.35881 28.2162 1.1537C28.4213 0.948577 28.6995 0.833344 28.9896 0.833344Z" fill="white"/>
</svg>
