<svg width="71" height="72" viewBox="0 0 71 72" fill="none" xmlns="http://www.w3.org/2000/svg">
<path d="M17.9095 34.2281L49.1661 9.47108C49.2478 9.40587 49.3459 9.36535 49.4493 9.35416C49.5527 9.34298 49.657 9.36158 49.7504 9.40784C49.8438 9.4541 49.9225 9.52614 49.9773 9.61568C50.0322 9.70522 50.061 9.80863 50.0605 9.91405V15.3492C50.0605 15.6937 49.9011 16.0242 49.6376 16.2351L24.6767 36L49.6376 55.7648C49.908 55.9758 50.0605 56.3062 50.0605 56.6508V62.0859C50.0605 62.557 49.5267 62.8172 49.1661 62.5289L17.9095 37.7719C17.6438 37.5617 17.4289 37.2929 17.2811 36.9859C17.1333 36.6788 17.0564 36.3417 17.0564 36C17.0564 35.6583 17.1333 35.3211 17.2811 35.0141C17.4289 34.7071 17.6438 34.4383 17.9095 34.2281Z" fill="#D1D517"/>
</svg>
