<svg width="69" height="69" viewBox="0 0 69 69" fill="none" xmlns="http://www.w3.org/2000/svg">
<path d="M51.595 32.8019L21.2189 9.07646C21.1395 9.01397 21.0441 8.97513 20.9436 8.96441C20.8432 8.95369 20.7418 8.97152 20.651 9.01585C20.5602 9.06018 20.4838 9.12922 20.4305 9.21503C20.3772 9.30084 20.3491 9.39995 20.3496 9.50097V14.7097C20.3496 15.0398 20.5046 15.3565 20.7607 15.5587L45.0184 34.5L20.7607 53.4413C20.4979 53.6435 20.3496 53.9602 20.3496 54.2903V59.499C20.3496 59.9505 20.8685 60.1998 21.2189 59.9235L51.595 36.198C51.8532 35.9967 52.062 35.739 52.2057 35.4448C52.3493 35.1506 52.424 34.8274 52.424 34.5C52.424 34.1726 52.3493 33.8494 52.2057 33.5552C52.062 33.261 51.8532 33.0033 51.595 32.8019Z" fill="#D1D417"/>
</svg>
